<svg xmlns="http://www.w3.org/2000/svg" width="116.002" height="50.801" viewBox="0 0 116.002 50.801"><defs><style>.a{fill:#007336;}.b{fill:#e31e24;}.c{fill:#00b052;}</style></defs><g transform="translate(-79.498 -25.74)"><path d="M-1373.078,19536.541a16.765,16.765,0,0,1-8.209-1.986,15.705,15.705,0,0,1-5.216-4.854l6.815-6.791a12.383,12.383,0,0,0,2.792,2.766,5.561,5.561,0,0,0,3.156.984c2.776,0,4.369-2.055,4.369-5.637V19495.5h7.649a10.029,10.029,0,0,0,2.873,6.08v19.514c0,5.049-1.195,8.658-3.761,11.361A13.982,13.982,0,0,1-1373.078,19536.541Z" transform="translate(1466 -19460)"/><path d="M-1347,19536.1h0v0l-9.834,0-13.02-34.176a9.99,9.99,0,0,0,3.236-6.455h6.146l8.668,25.525,8.668-25.525h11.615Z" transform="translate(1490.73 -19460)"/><path d="M394.413,92.74,379.9,67.5h12.047L399.8,82.2l7.9-14.7h11.844L405.037,92.562v15.568H394.413Z" transform="translate(-224.049 -32.026)"/><path class="a" d="M-1370.844,19535.8h0v0l-10.623,0v-32.6a9.938,9.938,0,0,0,4.932,1.311,9.866,9.866,0,0,0,5.692-1.793Z" transform="translate(1490.73 -19460)"/><path class="b" d="M191.611,31a8.345,8.345,0,1,1-8.311,8.345A8.331,8.331,0,0,1,191.611,31Z" transform="translate(-77.418 -4.841)"/><path class="c" d="M148.242,37.944c3.3,1.582,6.4,1.455,8.311-.051a14.7,14.7,0,0,0-7.142-7.4c-3.3-1.582-6.4-1.455-8.311.051a14.6,14.6,0,0,0,7.142,7.4Z" transform="translate(-45.944 -3.619)"/></g></svg>